<?xml version="1.0" standalone="no"?>
<!DOCTYPE svg PUBLIC "-//W3C//DTD SVG 20010904//EN"
 "http://www.w3.org/TR/2001/REC-SVG-20010904/DTD/svg10.dtd">
<svg version="1.0" xmlns="http://www.w3.org/2000/svg"
 width="300.000000pt" height="81.000000pt" viewBox="0 0 300.000000 81.000000"
 preserveAspectRatio="xMidYMid meet">
<metadata>
Created by potrace 1.10, written by Peter Selinger 2001-2011
</metadata>
<g transform="translate(0.000000,81.000000) scale(0.100000,-0.100000)"
fill="#000000" stroke="none">
<path d="M825 766 c-14 -14 -25 -32 -25 -41 0 -8 -8 -15 -18 -15 -11 0 -27
-14 -38 -35 -22 -42 -36 -48 -83 -36 -53 14 -520 12 -545 -1 -43 -23 -45 -36
-46 -227 l0 -184 37 -35 c21 -19 39 -47 41 -61 4 -33 37 -59 67 -53 12 2 43
24 68 48 52 49 38 47 245 45 84 -1 131 3 150 12 32 16 62 11 62 -10 0 -22 33
-60 48 -55 7 2 15 -9 18 -27 19 -93 123 -36 192 104 41 83 52 129 52 225 0
106 -19 170 -79 264 -63 97 -106 122 -146 82z m90 -53 c25 -32 57 -83 72 -113
26 -51 28 -64 28 -185 0 -128 -1 -131 -34 -197 -34 -68 -107 -158 -128 -158
-6 0 -16 7 -23 15 -11 13 -6 23 33 62 86 85 131 227 109 340 -16 80 -65 174
-112 217 -45 40 -45 41 -27 61 21 24 35 17 82 -42z m-80 -64 c97 -108 118
-265 53 -396 -26 -53 -86 -115 -107 -111 -28 6 -24 37 8 63 16 14 42 50 56 79
56 115 40 226 -48 322 -41 45 -47 57 -37 69 20 24 35 18 75 -26z m-155 -35 c0
-22 -24 -44 -48 -44 -44 0 -114 -41 -136 -79 -26 -45 -26 -117 0 -162 23 -39
93 -79 140 -79 29 0 44 -13 44 -41 0 -5 -79 -9 -184 -9 l-185 0 -43 -50 c-32
-37 -50 -50 -70 -50 -30 0 -32 6 -19 63 l9 37 -33 0 c-59 0 -65 20 -65 214 0
144 3 172 17 188 15 17 37 18 295 18 153 0 278 -3 278 -6z m82 -41 c47 -48 68
-99 68 -163 0 -61 -17 -104 -60 -153 -36 -42 -50 -45 -74 -18 -17 18 -16 20
12 37 71 42 95 156 47 227 -14 20 -29 37 -33 37 -4 0 -16 7 -26 15 -19 14 -19
15 -1 35 10 11 21 20 25 20 3 0 22 -17 42 -37z m-63 -69 c17 -14 36 -43 42
-64 16 -53 -11 -107 -65 -134 -36 -17 -43 -18 -80 -5 -45 16 -86 66 -86 106 0
99 116 159 189 97z"/>
<path d="M610 473 c-64 -23 -46 -123 22 -123 54 0 77 71 36 110 -22 20 -31 23
-58 13z m45 -63 c0 -18 -6 -26 -23 -28 -24 -4 -38 18 -28 44 3 9 15 14 28 12
17 -2 23 -10 23 -28z"/>
<path d="M1129 691 c-34 -34 -36 -60 -10 -115 18 -39 18 -66 0 -66 -5 0 -9 -9
-9 -20 0 -11 5 -20 10 -20 6 0 10 9 10 20 0 16 8 19 63 22 56 3 62 5 65 26 3
21 0 22 -52 22 -60 0 -76 13 -76 65 0 55 14 65 90 65 56 0 70 3 70 15 0 12
-14 15 -66 15 -59 0 -68 -3 -95 -29z"/>
<path d="M1325 710 c-3 -6 -10 -8 -14 -6 -4 3 -13 -11 -20 -30 -13 -35 -13
-35 -64 -32 -46 3 -52 1 -52 -17 0 -17 8 -20 53 -23 63 -4 88 -31 77 -82 -10
-45 -39 -60 -119 -60 -83 0 -80 -11 6 -21 46 -5 69 -4 90 7 21 11 33 12 49 4
20 -11 41 -2 61 25 4 5 23 10 42 12 26 1 36 -2 36 -13 0 -36 96 -45 147 -13
33 20 34 20 61 3 29 -19 116 -27 145 -12 9 5 17 15 17 23 0 23 26 18 56 -10
28 -26 58 -32 69 -15 3 6 -4 10 -18 10 -18 0 -34 14 -63 58 -21 31 -40 60 -42
64 -2 4 14 8 35 10 31 2 39 7 41 26 3 19 -1 22 -31 22 -20 0 -42 3 -51 6 -14
5 -16 -6 -16 -91 0 -94 0 -96 -22 -93 -22 3 -23 7 -26 116 l-3 112 79 0 c64 0
82 -4 95 -18 24 -27 22 -89 -3 -104 -28 -18 -25 -29 15 -68 24 -23 35 -29 35
-18 0 8 -6 21 -14 27 -16 14 -15 33 2 54 7 8 11 20 10 27 -2 7 2 15 9 17 15 5
27 -39 20 -69 -10 -37 4 -75 31 -87 21 -10 28 -9 45 8 15 15 20 34 21 81 1 71
21 96 64 79 20 -7 22 -15 22 -74 0 -52 4 -69 20 -85 26 -26 36 -25 64 5 16 17
21 33 18 53 -2 17 1 33 9 37 8 6 11 4 7 -7 -8 -19 23 -72 54 -92 19 -12 56
-15 200 -13 188 3 208 8 208 53 0 12 5 26 11 30 14 8 29 -14 29 -44 0 -14 9
-27 24 -33 33 -16 66 4 66 39 0 15 2 63 4 107 2 71 1 81 -20 102 -13 13 -27
23 -32 23 -15 0 -40 -34 -44 -60 -4 -29 -19 -31 -33 -4 -28 54 -38 59 -113 62
-48 2 -82 -1 -101 -11 -24 -12 -32 -12 -56 0 -19 10 -45 13 -88 9 -34 -3 -69
-5 -77 -5 -34 1 -367 2 -390 1 -14 -1 -56 1 -95 3 -59 4 -73 2 -93 -14 -12
-11 -24 -33 -25 -49 -2 -31 -27 -34 -27 -3 0 18 -36 54 -64 64 -24 10 -52 -15
-66 -59 -12 -37 -30 -37 -30 -1 -1 31 -23 57 -50 57 -22 0 -70 -44 -70 -65 0
-5 -15 7 -33 27 -34 39 -71 56 -82 38z m74 -76 c13 -30 26 -54 29 -54 4 0 20
24 36 54 26 48 61 77 69 58 1 -4 1 -58 -1 -119 -3 -104 -5 -113 -23 -113 -17
0 -19 8 -19 73 l-1 72 -31 -60 -31 -60 -28 60 -27 60 -1 -72 c-1 -66 -3 -73
-21 -73 -19 0 -20 7 -20 119 l0 118 24 -4 c17 -4 29 -19 45 -59z m275 54 c2
-7 20 -57 40 -112 20 -54 36 -102 36 -107 0 -5 -11 -9 -25 -9 -18 0 -26 7 -31
24 -5 19 -12 23 -44 23 -32 0 -39 -4 -44 -23 -5 -17 -13 -24 -31 -24 -14 0
-25 3 -25 7 0 3 17 51 37 107 33 93 53 126 75 126 5 0 10 -6 12 -12z m476 -24
c0 -22 -4 -25 -32 -22 l-33 3 4 -92 3 -93 -26 0 -26 0 0 95 0 95 -30 -6 c-22
-5 -31 -2 -36 10 -14 35 0 41 90 38 84 -3 86 -4 86 -28z m186 -10 c-4 -9 -16
-14 -33 -12 l-28 3 3 -92 3 -93 -25 0 -26 0 0 95 0 95 -29 -6 c-24 -5 -29 -3
-33 20 l-5 25 86 3 c88 3 101 -2 87 -38z m174 5 c-10 -18 -18 -21 -54 -16 -44
6 -66 -4 -66 -31 0 -10 13 -13 53 -11 47 3 52 1 55 -19 3 -20 -1 -22 -52 -22
-39 0 -56 -4 -56 -13 0 -25 24 -37 72 -37 37 0 50 -4 58 -19 16 -30 14 -31
-53 -31 -75 0 -102 16 -117 68 -14 53 -13 82 8 122 17 34 19 35 87 40 39 3 71
2 73 -2 2 -4 -2 -17 -8 -29z m244 -16 l-6 -44 48 3 48 3 0 44 c1 38 4 44 24
47 22 4 22 3 22 -116 l0 -120 -26 0 c-26 0 -26 1 -22 50 l5 50 -49 0 -50 0 4
-47 c3 -43 1 -48 -19 -51 -23 -3 -23 -2 -23 116 l0 119 25 -5 c24 -4 25 -7 19
-49z m-64 23 c0 -23 -4 -25 -52 -28 -46 -3 -54 -6 -66 -31 -26 -53 7 -97 74
-97 41 0 44 -2 44 -26 0 -26 -1 -26 -57 -22 -48 4 -61 10 -86 38 -26 30 -29
38 -25 86 7 79 33 104 110 104 55 0 58 -1 58 -24z m-12 -89 l3 -38 -38 3 c-31
2 -39 7 -41 26 -5 31 11 48 45 47 25 0 28 -4 31 -38z"/>
<path d="M1641 587 c-14 -37 -14 -37 9 -37 21 0 24 12 10 45 -7 19 -9 18 -19
-8z"/>
<path d="M1277 413 c-9 -2 -29 -26 -44 -51 -15 -26 -37 -60 -49 -77 -38 -54
-96 -165 -91 -177 4 -14 53 58 134 199 46 79 50 83 83 82 34 0 37 -3 121 -142
61 -102 90 -141 102 -139 9 2 30 -7 46 -19 44 -33 90 -21 122 32 13 22 30 47
37 54 6 7 12 16 12 19 0 2 23 43 51 89 58 98 57 122 -7 129 -42 5 -79 -24
-108 -82 -9 -19 -27 -48 -40 -64 l-24 -29 -44 76 c-23 42 -49 77 -55 77 -7 0
-13 5 -13 10 0 16 -76 12 -90 -5 -7 -8 -10 -25 -7 -37 5 -19 -1 -16 -27 14
-33 37 -71 52 -109 41z m287 -128 c32 -58 60 -105 61 -105 2 0 31 47 65 105
62 105 62 105 101 105 21 0 39 -3 39 -6 0 -3 -39 -68 -86 -145 -82 -133 -87
-139 -119 -139 -32 0 -36 5 -109 130 -42 71 -81 132 -86 135 -22 14 -7 25 33
25 l42 0 59 -105z"/>
<path d="M1278 261 c-16 -27 -28 -51 -28 -52 0 -2 27 -4 60 -4 33 0 60 1 60 2
0 8 -56 103 -60 103 -3 0 -17 -22 -32 -49z"/>
<path d="M1777 210 c-16 -13 -18 -22 -12 -46 4 -16 8 -37 9 -48 2 -30 30 -42
68 -29 18 6 51 9 73 6 22 -2 54 -4 70 -4 17 1 53 0 80 0 242 -4 249 -4 269 12
19 16 21 16 33 0 11 -15 14 -15 44 2 29 16 34 16 56 2 13 -9 32 -13 43 -10 10
3 21 1 25 -5 9 -14 51 -13 75 2 16 10 24 10 40 1 19 -12 98 -11 131 2 10 3 20
2 24 -4 11 -18 61 -12 89 10 34 27 36 77 3 107 -20 19 -35 22 -98 22 -41 0
-81 -4 -89 -10 -9 -5 -19 -5 -27 2 -10 8 -19 6 -33 -7 -19 -17 -21 -17 -38 -2
-27 25 -217 25 -244 0 -17 -15 -19 -15 -36 0 -21 20 -43 22 -59 6 -8 -8 -17
-8 -31 0 -12 6 -98 10 -232 9 -181 -1 -215 -4 -233 -18z m73 -15 c0 -8 -6 -12
-14 -9 -25 10 -26 -13 -1 -24 28 -13 32 -34 11 -52 -19 -15 -58 -9 -64 9 -3
10 2 12 22 7 33 -8 33 3 -1 30 -24 19 -26 24 -14 38 17 20 61 21 61 1z m46 -7
l7 -23 8 23 c5 12 15 22 24 22 14 0 14 -3 0 -30 -8 -16 -15 -40 -15 -55 0 -16
-6 -25 -15 -25 -9 0 -15 9 -15 23 -1 12 -7 33 -15 47 -18 32 -18 40 -1 40 8 0
18 -10 22 -22z m284 11 c0 -5 -9 -9 -20 -9 -27 0 -25 -18 3 -23 l22 -4 -22 -8
c-28 -9 -30 -35 -3 -35 11 0 20 -5 20 -11 0 -6 -14 -9 -32 -7 -29 3 -33 7 -35
33 0 17 -2 36 -2 43 -1 6 -8 12 -16 12 -11 0 -15 -12 -15 -45 0 -33 -4 -45
-15 -45 -11 0 -15 12 -15 44 0 44 0 44 -35 43 -39 -1 -46 -12 -15 -22 24 -8
27 -50 4 -59 -28 -11 -54 -6 -54 10 0 11 6 14 20 9 14 -5 20 -2 20 9 0 9 -7
16 -15 16 -21 0 -30 27 -16 44 14 16 221 21 221 5z m61 -19 c6 -16 15 -30 19
-30 5 0 11 14 15 30 5 21 13 30 26 30 16 0 19 -7 19 -55 0 -61 -19 -77 -21
-17 l-1 37 -15 -38 c-19 -46 -38 -48 -49 -4 l-8 32 -3 -32 c-3 -22 -10 -33
-20 -33 -12 0 -14 7 -9 31 3 17 6 42 6 55 0 35 29 30 41 -6z m369 20 c0 -5 -9
-10 -20 -10 -27 0 -25 -18 3 -23 l22 -4 -22 -8 c-29 -9 -31 -40 -3 -32 13 3
20 0 20 -9 0 -9 -12 -14 -35 -14 -35 0 -35 0 -35 45 0 33 -4 45 -15 45 -11 0
-15 -12 -15 -45 0 -33 -4 -45 -15 -45 -11 0 -15 12 -15 45 0 32 -4 45 -14 45
-8 0 -16 -10 -18 -22 -2 -15 -11 -24 -25 -26 -15 -2 -23 -10 -23 -23 0 -10 -4
-19 -10 -19 -5 0 -10 24 -10 54 l0 53 115 2 c72 1 115 -2 115 -9z m78 -32 c-2
-36 0 -43 15 -42 9 1 17 -5 17 -13 0 -10 -9 -13 -32 -11 -32 3 -33 4 -34 56
-1 45 2 52 18 52 17 0 19 -6 16 -42z m112 32 c0 -5 -7 -10 -15 -10 -11 0 -15
-12 -15 -45 0 -33 -4 -45 -15 -45 -11 0 -15 12 -15 45 0 33 -4 45 -15 45 -8 0
-15 5 -15 10 0 6 20 10 45 10 25 0 45 -4 45 -10z m82 -7 c37 -33 10 -93 -43
-93 -36 0 -38 5 -32 63 5 42 8 47 31 47 14 0 34 -7 44 -17z"/>
<path d="M2830 156 c0 -37 5 -42 28 -27 19 12 11 55 -10 59 -15 3 -18 -4 -18
-32z"/>
<path d="M1202 125 c-9 -20 -19 -25 -46 -25 -40 0 -56 -15 -26 -25 25 -8 57 2
89 26 18 14 41 19 93 19 59 0 74 -4 102 -25 37 -28 99 -35 90 -10 -4 9 -19 15
-38 15 -25 0 -35 6 -44 25 -11 24 -15 25 -110 25 -96 0 -99 -1 -110 -25z"/>
</g>
</svg>
